<svg width="900" height="600" viewBox="0 0 900 600" fill="none" xmlns="http://www.w3.org/2000/svg">
<path d="M712.048 81.56H179.811C164.347 81.56 151.811 94.096 151.811 109.56V423.247C151.811 438.711 164.347 451.247 179.811 451.247H712.048C727.512 451.247 740.048 438.711 740.048 423.247V109.56C740.048 94.096 727.512 81.56 712.048 81.56Z" fill="white" stroke="#E5E7EB" stroke-width="4"/>
<path d="M655.984 108.738H615.219C608.818 108.738 603.63 113.926 603.63 120.327C603.63 126.727 608.818 131.915 615.219 131.915H655.984C662.384 131.915 667.573 126.727 667.573 120.327C667.573 113.926 662.384 108.738 655.984 108.738Z" fill="white" stroke="#E5E7EB" stroke-width="4"/>
<path d="M569.923 108.738H529.158C522.758 108.738 517.569 113.926 517.569 120.327C517.569 126.727 522.758 131.915 529.158 131.915H569.923C576.324 131.915 581.512 126.727 581.512 120.327C581.512 113.926 576.324 108.738 569.923 108.738Z" fill="white" stroke="#E5E7EB" stroke-width="4"/>
<path d="M495.451 120.327C495.451 113.926 490.263 108.738 483.863 108.738C477.463 108.738 472.274 113.926 472.274 120.327C472.274 126.727 477.463 131.915 483.863 131.915C490.263 131.915 495.451 126.727 495.451 120.327Z" fill="white" stroke="#E5E7EB" stroke-width="4"/>
<path d="M204.205 324.755V294.053L278.937 190.047H327.727L255.137 294.053L232.765 287.389H362.951V324.755H204.205ZM292.265 356.647V324.755L293.693 287.389V259.067H338.199V356.647H292.265ZM446.06 359.979C431.78 359.979 419.086 356.568 407.98 349.745C397.032 342.922 388.384 333.085 382.038 320.233C375.691 307.381 372.518 291.752 372.518 273.347C372.518 254.942 375.691 239.313 382.038 226.461C388.384 213.609 397.032 203.772 407.98 196.949C419.086 190.126 431.78 186.715 446.06 186.715C460.181 186.715 472.716 190.126 483.664 196.949C494.77 203.772 503.497 213.609 509.844 226.461C516.19 239.313 519.364 254.942 519.364 273.347C519.364 291.752 516.19 307.381 509.844 320.233C503.497 333.085 494.77 342.922 483.664 349.745C472.716 356.568 460.181 359.979 446.06 359.979ZM446.06 321.423C451.137 321.423 455.58 319.836 459.388 316.663C463.354 313.49 466.448 308.412 468.67 301.431C470.891 294.291 472.002 284.93 472.002 273.347C472.002 261.606 470.891 252.244 468.67 245.263C466.448 238.282 463.354 233.204 459.388 230.031C455.58 226.858 451.137 225.271 446.06 225.271C440.982 225.271 436.46 226.858 432.494 230.031C428.686 233.204 425.592 238.282 423.212 245.263C420.99 252.244 419.88 261.606 419.88 273.347C419.88 284.93 420.99 294.291 423.212 301.431C425.592 308.412 428.686 313.49 432.494 316.663C436.46 319.836 440.982 321.423 446.06 321.423ZM533.78 324.755V294.053L608.512 190.047H657.302L584.712 294.053L562.34 287.389H692.526V324.755H533.78ZM621.84 356.647V324.755L623.268 287.389V259.067H667.774V356.647H621.84Z" fill="#E5E7EB"/>
<path d="M207.826 118.062C207.826 112.912 203.651 108.738 198.502 108.738C193.352 108.738 189.178 112.912 189.178 118.062C189.178 123.212 193.352 127.386 198.502 127.386C203.651 127.386 207.826 123.212 207.826 118.062Z" fill="white" stroke="#E5E7EB" stroke-width="4"/>
<path d="M159.478 330.359C166.013 330.359 171.311 335.657 171.311 342.192C171.311 348.727 166.013 354.025 159.478 354.025C152.942 354.025 147.645 348.727 147.645 342.192C147.645 335.657 152.942 330.359 159.478 330.359Z" fill="#0E9F6E"/>
<path d="M749.183 202.604C741.258 207.179 731.124 204.464 726.549 196.539C721.974 188.614 724.689 178.481 732.614 173.906C740.539 169.33 750.672 172.045 755.247 179.97C759.823 187.895 757.108 198.028 749.183 202.604Z" fill="#0E9F6E"/>
<path d="M439.592 132.568C432.772 132.568 427.243 127.039 427.243 120.219C427.243 113.399 432.772 107.87 439.592 107.87C446.413 107.87 451.941 113.399 451.941 120.219C451.941 127.039 446.413 132.568 439.592 132.568Z" fill="#E5E7EB"/>
<path d="M291.939 90.915C301.016 90.915 308.374 83.5568 308.374 74.48C308.374 65.4032 301.016 58.045 291.939 58.045C282.862 58.045 275.504 65.4032 275.504 74.48C275.504 83.5568 282.862 90.915 291.939 90.915Z" fill="#0E9F6E"/>
<path d="M526.893 372.847C519.388 372.847 513.304 378.931 513.304 386.436C513.304 393.941 519.388 400.025 526.893 400.025C534.398 400.025 540.482 393.941 540.482 386.436C540.482 378.931 534.398 372.847 526.893 372.847Z" fill="#0E9F6E"/>
<path d="M275.539 425.005C268.641 425.005 263.049 419.413 263.049 412.515C263.049 405.617 268.641 400.025 275.539 400.025C282.437 400.025 288.029 405.617 288.029 412.515C288.029 419.413 282.437 425.005 275.539 425.005Z" fill="#E5E7EB"/>
<path d="M400.546 366.204C405.023 368.788 406.557 374.513 403.972 378.99C401.387 383.467 395.663 385 391.186 382.416C386.709 379.831 385.175 374.107 387.76 369.63C390.345 365.153 396.069 363.619 400.546 366.204Z" fill="#E5E7EB"/>
<path d="M709.236 106.125L692.212 123.149C691.592 123.769 691.591 124.775 692.211 125.395C692.831 126.014 693.837 126.014 694.457 125.394L711.481 108.37C712.101 107.75 712.101 106.744 711.481 106.124C710.862 105.504 709.856 105.505 709.236 106.125Z" fill="#E5E7EB"/>
<path d="M707.57 118.315L702.661 123.224C702.041 123.844 702.041 124.85 702.661 125.47C703.281 126.09 704.286 126.089 704.906 125.469L709.815 120.56C710.436 119.94 710.436 118.934 709.816 118.314C709.196 117.694 708.191 117.695 707.57 118.315Z" fill="#E5E7EB"/>
<path d="M184.165 406.691L168.931 421.925C168.376 422.479 168.376 423.378 168.931 423.933L168.932 423.934C169.486 424.488 170.385 424.488 170.94 423.934L186.174 408.7C186.728 408.145 186.728 407.246 186.174 406.692L186.173 406.691C185.618 406.136 184.719 406.136 184.165 406.691Z" fill="#E5E7EB"/>
<path d="M182.674 417.597L178.28 421.991C177.726 422.545 177.726 423.445 178.28 423.999L178.281 424C178.836 424.554 179.735 424.554 180.289 424L184.683 419.606C185.238 419.051 185.238 418.152 184.683 417.598L184.683 417.597C184.128 417.042 183.229 417.042 182.674 417.597Z" fill="#E5E7EB"/>
<path d="M110.338 110.434L139.787 80.9847C140.859 79.9123 140.859 78.1737 139.787 77.1013C138.714 76.0289 136.976 76.0289 135.903 77.1013L106.454 106.55C105.382 107.623 105.382 109.361 106.454 110.434C107.527 111.506 109.266 111.506 110.338 110.434Z" fill="#E5E7EB"/>
<path d="M113.222 89.3488L121.716 80.8557C122.788 79.7833 122.788 78.0447 121.716 76.9723C120.643 75.8999 118.904 75.8999 117.832 76.9723L109.339 85.4653C108.267 86.5377 108.267 88.2764 109.339 89.3488C110.411 90.4211 112.15 90.4211 113.222 89.3488Z" fill="#E5E7EB"/>
<path d="M695.19 427.213L715.921 406.481C716.676 405.726 716.676 404.502 715.921 403.747C715.166 402.992 713.942 402.992 713.188 403.747L692.456 424.479C691.701 425.234 691.701 426.458 692.456 427.213C693.211 427.967 694.435 427.967 695.19 427.213Z" fill="#E5E7EB"/>
<path d="M697.219 412.37L703.199 406.391C703.953 405.636 703.953 404.412 703.199 403.657C702.444 402.902 701.22 402.902 700.465 403.657L694.486 409.636C693.731 410.391 693.731 411.615 694.486 412.37C695.241 413.125 696.464 413.125 697.219 412.37Z" fill="#E5E7EB"/>
<path fill-rule="evenodd" clip-rule="evenodd" d="M681.208 45.42H684.512C685.311 45.42 685.954 46.07 685.954 46.862V50.166C685.954 50.965 685.304 51.608 684.512 51.608H681.208C680.416 51.608 679.766 50.958 679.766 50.166V46.862C679.766 46.6725 679.803 46.4848 679.875 46.3097C679.947 46.1346 680.053 45.9755 680.187 45.8415C680.321 45.7075 680.481 45.6013 680.656 45.529C680.831 45.4566 681.019 45.4196 681.208 45.42ZM692.663 45.42H695.967C696.759 45.42 697.409 46.07 697.409 46.862V50.166C697.409 50.965 696.759 51.608 695.967 51.608H692.663C691.871 51.608 691.221 50.958 691.221 50.166V46.862C691.221 46.07 691.871 45.42 692.663 45.42ZM704.126 45.42H707.43C708.223 45.42 708.873 46.07 708.873 46.862V50.166C708.873 50.965 708.223 51.608 707.43 51.608H704.126C703.334 51.608 702.684 50.958 702.684 50.166V46.862C702.684 46.6725 702.721 46.4848 702.793 46.3097C702.865 46.1346 702.971 45.9755 703.105 45.8415C703.239 45.7075 703.399 45.6013 703.574 45.529C703.749 45.4566 703.937 45.4196 704.126 45.42ZM715.582 45.42H718.886C719.678 45.42 720.328 46.07 720.328 46.862V50.166C720.328 50.965 719.678 51.608 718.886 51.608H715.582C715.199 51.6077 714.832 51.456 714.56 51.1858C714.289 50.9156 714.135 50.549 714.133 50.166V46.862C714.137 46.4796 714.291 46.1142 714.562 45.8445C714.833 45.5748 715.2 45.4223 715.582 45.42ZM727.038 45.42H730.342C731.141 45.42 731.791 46.07 731.791 46.862V50.166C731.791 50.965 731.141 51.608 730.342 51.608H727.038C726.246 51.608 725.596 50.958 725.596 50.166V46.862C725.596 46.07 726.246 45.42 727.038 45.42ZM693.083 57.912H696.387C697.18 57.912 697.83 58.562 697.83 59.354V62.665C697.83 63.457 697.18 64.107 696.387 64.107H693.083C692.284 64.107 691.641 63.457 691.641 62.665V59.361C691.64 59.171 691.676 58.9826 691.748 58.8067C691.82 58.6308 691.926 58.4709 692.06 58.3362C692.194 58.2015 692.354 58.0947 692.529 58.0219C692.705 57.9491 692.893 57.9117 693.083 57.912ZM704.539 57.912H707.843C708.635 57.912 709.285 58.562 709.285 59.354V62.665C709.285 63.457 708.635 64.107 707.843 64.107H704.539C703.747 64.107 703.097 63.457 703.097 62.665V59.361C703.096 59.171 703.132 58.9826 703.204 58.8067C703.276 58.6308 703.382 58.4709 703.516 58.3362C703.65 58.2015 703.81 58.0947 703.985 58.0219C704.161 57.9491 704.349 57.9117 704.539 57.912ZM715.995 57.912H719.299C720.098 57.912 720.748 58.562 720.748 59.354V62.665C720.746 63.048 720.592 63.4146 720.321 63.6848C720.049 63.955 719.682 64.1067 719.299 64.107H715.995C715.203 64.107 714.553 63.457 714.553 62.665V59.361C714.553 58.562 715.203 57.912 715.995 57.912ZM704.126 32H707.43C708.223 32 708.873 32.65 708.873 33.442V36.747C708.873 37.545 708.223 38.189 707.43 38.189H704.126C703.334 38.189 702.684 37.539 702.684 36.747V33.442C702.684 33.2525 702.721 33.0648 702.793 32.8897C702.865 32.7146 702.971 32.5555 703.105 32.4215C703.239 32.2875 703.399 32.1813 703.574 32.109C703.749 32.0366 703.937 31.9996 704.126 32ZM715.582 32H718.886C719.678 32 720.328 32.65 720.328 33.442V36.747C720.328 37.545 719.678 38.189 718.886 38.189H715.582C715.199 38.1887 714.832 38.037 714.56 37.7668C714.289 37.4966 714.135 37.13 714.133 36.747V33.442C714.137 33.0597 714.291 32.6943 714.562 32.4245C714.833 32.1548 715.2 32.0023 715.582 32ZM84.442 434.96H87.746C88.545 434.96 89.188 435.61 89.188 436.402V439.706C89.188 440.505 88.538 441.148 87.746 441.148H84.442C83.65 441.148 83 440.498 83 439.706V436.402C82.9996 436.213 83.0366 436.025 83.109 435.85C83.1813 435.675 83.2875 435.515 83.4215 435.381C83.5555 435.247 83.7146 435.141 83.8897 435.069C84.0648 434.997 84.2525 434.96 84.442 434.96ZM95.897 434.96H99.201C99.994 434.96 100.644 435.61 100.644 436.402V439.706C100.644 440.505 99.994 441.148 99.201 441.148H95.897C95.105 441.148 94.455 440.498 94.455 439.706V436.402C94.455 435.61 95.105 434.96 95.897 434.96ZM107.36 434.96H110.665C111.457 434.96 112.107 435.61 112.107 436.402V439.706C112.107 440.505 111.457 441.148 110.665 441.148H107.36C106.568 441.148 105.918 440.498 105.918 439.706V436.402C105.918 436.213 105.955 436.025 106.027 435.85C106.1 435.675 106.206 435.516 106.34 435.382C106.474 435.248 106.633 435.142 106.808 435.069C106.983 434.997 107.171 434.96 107.36 434.96ZM118.816 434.96H122.12C122.912 434.96 123.562 435.61 123.562 436.402V439.706C123.562 440.505 122.912 441.148 122.12 441.148H118.816C118.433 441.148 118.066 440.996 117.794 440.726C117.523 440.456 117.369 440.089 117.367 439.706V436.402C117.371 436.02 117.525 435.654 117.796 435.385C118.067 435.115 118.434 434.962 118.816 434.96ZM130.272 434.96H133.576C134.375 434.96 135.025 435.61 135.025 436.402V439.706C135.025 440.505 134.375 441.148 133.576 441.148H130.272C129.48 441.148 128.83 440.498 128.83 439.706V436.402C128.83 435.61 129.48 434.96 130.272 434.96ZM96.318 447.452H99.622C100.414 447.452 101.064 448.102 101.064 448.894V452.205C101.064 452.997 100.414 453.647 99.622 453.647H96.318C95.519 453.647 94.875 452.997 94.875 452.205V448.901C94.8741 448.711 94.9107 448.523 94.9828 448.347C95.055 448.171 95.1611 448.011 95.2952 447.876C95.4293 447.742 95.5887 447.635 95.7642 447.562C95.9398 447.489 96.128 447.452 96.318 447.452ZM107.773 447.452H111.077C111.869 447.452 112.519 448.102 112.519 448.894V452.205C112.519 452.997 111.869 453.647 111.077 453.647H107.773C106.981 453.647 106.331 452.997 106.331 452.205V448.901C106.33 448.711 106.366 448.523 106.438 448.347C106.51 448.171 106.616 448.011 106.75 447.876C106.884 447.742 107.044 447.635 107.219 447.562C107.395 447.489 107.583 447.452 107.773 447.452ZM119.229 447.452H122.533C123.332 447.452 123.982 448.102 123.982 448.894V452.205C123.98 452.588 123.826 452.955 123.555 453.225C123.283 453.495 122.916 453.647 122.533 453.647H119.229C118.437 453.647 117.787 452.997 117.787 452.205V448.901C117.787 448.102 118.437 447.452 119.229 447.452ZM107.361 421.54H110.665C111.457 421.54 112.107 422.19 112.107 422.983V426.287C112.107 427.086 111.457 427.729 110.665 427.729H107.361C106.568 427.729 105.918 427.079 105.918 426.287V422.983C105.918 422.793 105.955 422.606 106.027 422.43C106.099 422.255 106.206 422.096 106.34 421.962C106.474 421.828 106.633 421.721 106.808 421.649C106.984 421.577 107.171 421.54 107.361 421.54ZM118.816 421.54H122.12C122.912 421.54 123.562 422.19 123.562 422.983V426.287C123.562 427.086 122.912 427.729 122.12 427.729H118.816C118.433 427.729 118.066 427.577 117.794 427.307C117.523 427.037 117.369 426.67 117.367 426.287V422.983C117.371 422.6 117.525 422.235 117.796 421.965C118.067 421.695 118.433 421.542 118.816 421.54Z" fill="#E5E7EB"/>
<path fill-rule="evenodd" clip-rule="evenodd" d="M153.661 268.569C129.021 268.569 109.044 248.31 109.044 223.323C109.044 198.336 129.021 178.078 153.661 178.078C178.301 178.078 198.278 198.336 198.278 223.323C198.278 248.31 178.301 268.569 153.661 268.569Z" fill="#0E9F6E"/>
<path d="M171.636 204.123L152.788 224.232L141.472 212.168" stroke="white" stroke-width="7.405" stroke-linecap="round" stroke-linejoin="round"/>
<path d="M133.957 243.482L152.805 223.373L164.121 235.437" stroke="white" stroke-width="7.405" stroke-linecap="round" stroke-linejoin="round"/>
<path d="M229.167 530V492.9H246.127C249.519 492.9 252.434 493.448 254.872 494.543C257.345 495.638 259.253 497.228 260.596 499.313C261.939 501.362 262.61 503.8 262.61 506.627C262.61 509.418 261.939 511.839 260.596 513.888C259.253 515.937 257.345 517.527 254.872 518.658C252.434 519.753 249.519 520.301 246.127 520.301H234.997L239.661 515.743V530H229.167ZM239.661 516.856L234.997 512.033H245.491C247.682 512.033 249.307 511.556 250.367 510.602C251.462 509.648 252.01 508.323 252.01 506.627C252.01 504.896 251.462 503.553 250.367 502.599C249.307 501.645 247.682 501.168 245.491 501.168H234.997L239.661 496.345V516.856ZM284.534 530V524.647L283.845 523.322V513.464C283.845 511.874 283.35 510.655 282.361 509.807C281.407 508.924 279.87 508.482 277.75 508.482C276.372 508.482 274.976 508.712 273.563 509.171C272.149 509.595 270.948 510.196 269.959 510.973L266.567 504.136C268.192 503.076 270.135 502.263 272.397 501.698C274.693 501.097 276.972 500.797 279.234 500.797C283.898 500.797 287.502 501.875 290.046 504.03C292.625 506.15 293.915 509.489 293.915 514.047V530H284.534ZM276.054 530.477C273.757 530.477 271.814 530.088 270.224 529.311C268.634 528.534 267.415 527.474 266.567 526.131C265.754 524.788 265.348 523.287 265.348 521.626C265.348 519.859 265.789 518.34 266.673 517.068C267.591 515.761 268.987 514.771 270.86 514.1C272.732 513.393 275.153 513.04 278.121 513.04H284.905V518.287H279.499C277.873 518.287 276.725 518.552 276.054 519.082C275.418 519.612 275.1 520.319 275.1 521.202C275.1 522.085 275.435 522.792 276.107 523.322C276.778 523.852 277.697 524.117 278.863 524.117C279.958 524.117 280.947 523.852 281.831 523.322C282.749 522.757 283.421 521.909 283.845 520.778L285.223 524.488C284.693 526.467 283.65 527.968 282.096 528.993C280.576 529.982 278.562 530.477 276.054 530.477ZM314.678 540.759C311.922 540.759 309.29 540.441 306.781 539.805C304.308 539.169 302.188 538.233 300.421 536.996L304.078 529.947C305.28 530.901 306.764 531.643 308.53 532.173C310.332 532.738 312.081 533.021 313.777 533.021C316.498 533.021 318.459 532.42 319.66 531.219C320.862 530.053 321.462 528.339 321.462 526.078V522.686L321.992 514.63L321.939 506.521V501.274H331.532V524.753C331.532 530.194 330.066 534.222 327.133 536.837C324.201 539.452 320.049 540.759 314.678 540.759ZM312.929 528.516C310.385 528.516 308.036 527.951 305.88 526.82C303.76 525.654 302.047 524.046 300.739 521.997C299.467 519.912 298.831 517.457 298.831 514.63C298.831 511.803 299.467 509.365 300.739 507.316C302.047 505.231 303.76 503.624 305.88 502.493C308.036 501.362 310.385 500.797 312.929 500.797C315.367 500.797 317.452 501.292 319.183 502.281C320.915 503.235 322.222 504.737 323.105 506.786C324.024 508.835 324.483 511.45 324.483 514.63C324.483 517.81 324.024 520.425 323.105 522.474C322.222 524.523 320.915 526.043 319.183 527.032C317.452 528.021 315.367 528.516 312.929 528.516ZM315.314 520.513C316.516 520.513 317.576 520.266 318.494 519.771C319.448 519.276 320.19 518.587 320.72 517.704C321.286 516.821 321.568 515.796 321.568 514.63C321.568 513.464 321.286 512.439 320.72 511.556C320.19 510.673 319.448 510.001 318.494 509.542C317.576 509.047 316.516 508.8 315.314 508.8C314.113 508.8 313.035 509.047 312.081 509.542C311.127 510.001 310.368 510.673 309.802 511.556C309.272 512.439 309.007 513.464 309.007 514.63C309.007 515.796 309.272 516.821 309.802 517.704C310.368 518.587 311.127 519.276 312.081 519.771C313.035 520.266 314.113 520.513 315.314 520.513ZM353.055 530.477C349.663 530.477 346.695 529.841 344.151 528.569C341.642 527.262 339.681 525.495 338.268 523.269C336.89 521.008 336.201 518.446 336.201 515.584C336.201 512.722 336.872 510.178 338.215 507.952C339.593 505.691 341.483 503.942 343.886 502.705C346.288 501.433 348.991 500.797 351.995 500.797C354.821 500.797 357.401 501.38 359.733 502.546C362.065 503.677 363.92 505.355 365.298 507.581C366.676 509.807 367.365 512.51 367.365 515.69C367.365 516.043 367.347 516.45 367.312 516.909C367.276 517.368 367.241 517.792 367.206 518.181H344.469V512.881H361.853L358.037 514.365C358.072 513.058 357.825 511.927 357.295 510.973C356.8 510.019 356.093 509.277 355.175 508.747C354.291 508.217 353.249 507.952 352.048 507.952C350.846 507.952 349.786 508.217 348.868 508.747C347.984 509.277 347.295 510.037 346.801 511.026C346.306 511.98 346.059 513.111 346.059 514.418V515.955C346.059 517.368 346.341 518.587 346.907 519.612C347.507 520.637 348.355 521.432 349.451 521.997C350.546 522.527 351.853 522.792 353.373 522.792C354.786 522.792 355.987 522.598 356.977 522.209C358.001 521.785 359.008 521.149 359.998 520.301L365.298 525.813C363.92 527.332 362.224 528.498 360.21 529.311C358.196 530.088 355.811 530.477 353.055 530.477ZM406.14 500.797C408.366 500.797 410.38 501.256 412.182 502.175C413.984 503.058 415.398 504.436 416.422 506.309C417.482 508.182 418.012 510.602 418.012 513.57V530H407.942V515.213C407.942 513.164 407.518 511.68 406.67 510.761C405.858 509.807 404.709 509.33 403.225 509.33C402.165 509.33 401.194 509.577 400.31 510.072C399.427 510.531 398.738 511.256 398.243 512.245C397.749 513.234 397.501 514.524 397.501 516.114V530H387.431V501.274H397.024V509.436L395.169 507.051C396.265 504.966 397.766 503.412 399.674 502.387C401.582 501.327 403.738 500.797 406.14 500.797ZM439.113 530.477C435.968 530.477 433.177 529.841 430.739 528.569C428.301 527.297 426.375 525.548 424.962 523.322C423.584 521.061 422.895 518.481 422.895 515.584C422.895 512.687 423.584 510.125 424.962 507.899C426.375 505.673 428.301 503.942 430.739 502.705C433.177 501.433 435.968 500.797 439.113 500.797C442.258 500.797 445.049 501.433 447.487 502.705C449.96 503.942 451.886 505.673 453.264 507.899C454.642 510.125 455.331 512.687 455.331 515.584C455.331 518.481 454.642 521.061 453.264 523.322C451.886 525.548 449.96 527.297 447.487 528.569C445.049 529.841 442.258 530.477 439.113 530.477ZM439.113 522.474C440.279 522.474 441.304 522.209 442.187 521.679C443.106 521.149 443.83 520.372 444.36 519.347C444.89 518.287 445.155 517.033 445.155 515.584C445.155 514.135 444.89 512.916 444.36 511.927C443.83 510.902 443.106 510.125 442.187 509.595C441.304 509.065 440.279 508.8 439.113 508.8C437.982 508.8 436.958 509.065 436.039 509.595C435.156 510.125 434.431 510.902 433.866 511.927C433.336 512.916 433.071 514.135 433.071 515.584C433.071 517.033 433.336 518.287 433.866 519.347C434.431 520.372 435.156 521.149 436.039 521.679C436.958 522.209 437.982 522.474 439.113 522.474ZM472.822 530.477C469.147 530.477 466.285 529.576 464.236 527.774C462.186 525.937 461.162 523.181 461.162 519.506V494.861H471.232V519.4C471.232 520.425 471.514 521.237 472.08 521.838C472.645 522.403 473.369 522.686 474.253 522.686C475.454 522.686 476.479 522.386 477.327 521.785L479.818 528.834C478.97 529.399 477.927 529.806 476.691 530.053C475.454 530.336 474.164 530.477 472.822 530.477ZM456.975 509.86V502.334H477.804V509.86H456.975ZM509.354 509.171H526.473V517.28H509.354V509.171ZM510.096 530H499.602V492.9H528.699V501.009H510.096V530ZM546.924 530.477C543.78 530.477 540.988 529.841 538.55 528.569C536.112 527.297 534.187 525.548 532.773 523.322C531.395 521.061 530.706 518.481 530.706 515.584C530.706 512.687 531.395 510.125 532.773 507.899C534.187 505.673 536.112 503.942 538.55 502.705C540.988 501.433 543.78 500.797 546.924 500.797C550.069 500.797 552.86 501.433 555.298 502.705C557.772 503.942 559.697 505.673 561.075 507.899C562.453 510.125 563.142 512.687 563.142 515.584C563.142 518.481 562.453 521.061 561.075 523.322C559.697 525.548 557.772 527.297 555.298 528.569C552.86 529.841 550.069 530.477 546.924 530.477ZM546.924 522.474C548.09 522.474 549.115 522.209 549.998 521.679C550.917 521.149 551.641 520.372 552.171 519.347C552.701 518.287 552.966 517.033 552.966 515.584C552.966 514.135 552.701 512.916 552.171 511.927C551.641 510.902 550.917 510.125 549.998 509.595C549.115 509.065 548.09 508.8 546.924 508.8C545.794 508.8 544.769 509.065 543.85 509.595C542.967 510.125 542.243 510.902 541.677 511.927C541.147 512.916 540.882 514.135 540.882 515.584C540.882 517.033 541.147 518.287 541.677 519.347C542.243 520.372 542.967 521.149 543.85 521.679C544.769 522.209 545.794 522.474 546.924 522.474ZM579.891 530.477C577.559 530.477 575.457 530.018 573.584 529.099C571.747 528.18 570.298 526.749 569.238 524.806C568.214 522.827 567.701 520.336 567.701 517.333V501.274H577.771V515.69C577.771 517.916 578.178 519.506 578.99 520.46C579.838 521.414 581.022 521.891 582.541 521.891C583.531 521.891 584.432 521.661 585.244 521.202C586.057 520.743 586.711 520.018 587.205 519.029C587.7 518.004 587.947 516.697 587.947 515.107V501.274H598.017V530H588.424V521.891L590.279 524.17C589.29 526.29 587.859 527.88 585.986 528.94C584.114 529.965 582.082 530.477 579.891 530.477ZM623.213 500.797C625.439 500.797 627.453 501.256 629.255 502.175C631.057 503.058 632.47 504.436 633.495 506.309C634.555 508.182 635.085 510.602 635.085 513.57V530H625.015V515.213C625.015 513.164 624.591 511.68 623.743 510.761C622.93 509.807 621.782 509.33 620.298 509.33C619.238 509.33 618.266 509.577 617.383 510.072C616.499 510.531 615.81 511.256 615.316 512.245C614.821 513.234 614.574 514.524 614.574 516.114V530H604.504V501.274H614.097V509.436L612.242 507.051C613.337 504.966 614.839 503.412 616.747 502.387C618.655 501.327 620.81 500.797 623.213 500.797ZM654.277 530.477C651.662 530.477 649.277 529.876 647.122 528.675C645.002 527.438 643.306 525.725 642.034 523.534C640.762 521.308 640.126 518.658 640.126 515.584C640.126 512.545 640.762 509.931 642.034 507.74C643.306 505.514 645.002 503.8 647.122 502.599C649.277 501.398 651.662 500.797 654.277 500.797C656.75 500.797 658.835 501.327 660.531 502.387C662.262 503.447 663.57 505.072 664.453 507.263C665.336 509.454 665.778 512.227 665.778 515.584C665.778 519.011 665.354 521.82 664.506 524.011C663.658 526.202 662.386 527.827 660.69 528.887C658.994 529.947 656.856 530.477 654.277 530.477ZM656.397 522.474C657.528 522.474 658.535 522.209 659.418 521.679C660.337 521.149 661.061 520.372 661.591 519.347C662.121 518.287 662.386 517.033 662.386 515.584C662.386 514.135 662.121 512.916 661.591 511.927C661.061 510.902 660.337 510.125 659.418 509.595C658.535 509.065 657.528 508.8 656.397 508.8C655.231 508.8 654.189 509.065 653.27 509.595C652.387 510.125 651.68 510.902 651.15 511.927C650.62 512.916 650.355 514.135 650.355 515.584C650.355 517.033 650.62 518.287 651.15 519.347C651.68 520.372 652.387 521.149 653.27 521.679C654.189 522.209 655.231 522.474 656.397 522.474ZM662.704 530V525.071L662.757 515.584L662.227 506.097V490.674H672.297V530H662.704Z" fill="#4D4D4D"/>
</svg>
